<svg width="33" height="33" viewBox="0 0 33 33" fill="none" xmlns="http://www.w3.org/2000/svg">
<rect width="33" height="33" rx="16.5" fill="white"/>
<path d="M21 11C21.2652 11 21.5195 11.1055 21.707 11.293C21.8946 11.4805 22 11.7348 22 12C22.0023 12.1224 21.9799 12.2441 21.9336 12.3574C21.8872 12.4709 21.818 12.5744 21.7305 12.6602L17.8398 16.5L21.7305 20.3896C21.8953 20.5509 21.9915 20.7696 22 21C22 21.2652 21.8946 21.5195 21.707 21.707C21.5195 21.8945 21.2652 22 21 22C20.8727 22.0053 20.7456 21.9839 20.627 21.9375C20.5084 21.8911 20.4005 21.8206 20.3105 21.7305L16.5 17.8701L12.6504 21.7197C12.566 21.8069 12.4649 21.8768 12.3535 21.9248C12.242 21.9729 12.1215 21.9986 12 22C11.7348 22 11.4805 21.8945 11.293 21.707C11.1055 21.5195 11 21.2652 11 21C10.9977 20.8775 11.021 20.756 11.0674 20.6426C11.1138 20.5291 11.1829 20.4257 11.2705 20.3398L15.1602 16.5L11.2705 12.6104C11.1057 12.4491 11.0085 12.2304 11 12C11 11.7348 11.1055 11.4805 11.293 11.293C11.4805 11.1055 11.7348 11 12 11C12.24 11.003 12.4706 11.0995 12.6406 11.2695L16.5 15.1299L20.3398 11.29C20.4246 11.1998 20.5273 11.128 20.6406 11.0781C20.754 11.0283 20.8762 11.0014 21 11Z" fill="#62646D"/>
<path d="M21 11C21.2652 11 21.5195 11.1055 21.707 11.293C21.8946 11.4805 22 11.7348 22 12C22.0023 12.1224 21.9799 12.2441 21.9336 12.3574C21.8872 12.4709 21.818 12.5744 21.7305 12.6602L17.8398 16.5L21.7305 20.3896C21.8953 20.5509 21.9915 20.7696 22 21C22 21.2652 21.8946 21.5195 21.707 21.707C21.5195 21.8945 21.2652 22 21 22C20.8727 22.0053 20.7456 21.9839 20.627 21.9375C20.5084 21.8911 20.4005 21.8206 20.3105 21.7305L16.5 17.8701L12.6504 21.7197C12.566 21.8069 12.4649 21.8768 12.3535 21.9248C12.242 21.9729 12.1215 21.9986 12 22C11.7348 22 11.4805 21.8945 11.293 21.707C11.1055 21.5195 11 21.2652 11 21C10.9977 20.8775 11.021 20.756 11.0674 20.6426C11.1138 20.5291 11.1829 20.4257 11.2705 20.3398L15.1602 16.5L11.2705 12.6104C11.1057 12.4491 11.0085 12.2304 11 12C11 11.7348 11.1055 11.4805 11.293 11.293C11.4805 11.1055 11.7348 11 12 11C12.24 11.003 12.4706 11.0995 12.6406 11.2695L16.5 15.1299L20.3398 11.29C20.4246 11.1998 20.5273 11.128 20.6406 11.0781C20.754 11.0283 20.8762 11.0014 21 11Z" stroke="#8D8D8D"/>
</svg>
